<?xml version="1.0" encoding="utf-8"?>
<svg version="1.1" xmlns:xlink="http://www.w3.org/1999/xlink" width="134px" height="6px" xmlns="http://www.w3.org/2000/svg">
  <g transform="matrix(1 0 0 1 -529 -205 )">
    <path d="M 529 208.813953488372  C 529 207.645164831753  529.947490413149 206.697674418605  531.116279069767 206.697674418605  C 531.116279069767 206.697674418605  591.147058823528 206.697674418605  591.147058823528 206.697674418605  C 591.147058823528 206.697674418605  595.9 205.093333333333  595.9 205.093333333333  C 595.9 205.093333333333  600.147058823528 206.697674418605  600.147058823528 206.697674418605  C 600.147058823528 206.697674418605  660.883720930233 206.697674418605  660.883720930233 206.697674418605  C 662.052509586851 206.697674418605  663 207.645164831753  663 208.813953488372  C 663 209.982742144991  662.052509586851 210.93023255814  660.883720930233 210.93023255814  C 660.883720930233 210.93023255814  531.116279069767 210.93023255814  531.116279069767 210.93023255814  C 529.947490413149 210.93023255814  529 209.982742144991  529 208.813953488372  Z " fill-rule="nonzero" fill="#6f8efd" stroke="none" />
  </g>
</svg>