<?xml version="1.0" encoding="utf-8"?>
<svg version="1.1" xmlns:xlink="http://www.w3.org/1999/xlink" width="12px" height="12px" viewBox="476 1077  12 12" xmlns="http://www.w3.org/2000/svg">
  <path d="M 482 1077  C 485.36 1077  488 1079.64  488 1083  C 488 1086.36  485.36 1089  482 1089  C 478.64 1089  476 1086.36  476 1083  C 476 1079.64  478.64 1077  482 1077  Z " fill-rule="nonzero" fill="#ffffff" stroke="none" />
  <path d="M 482 1077.5  C 485.08 1077.5  487.5 1079.92  487.5 1083  C 487.5 1086.08  485.08 1088.5  482 1088.5  C 478.92 1088.5  476.5 1086.08  476.5 1083  C 476.5 1079.92  478.92 1077.5  482 1077.5  Z " stroke-width="1" stroke="#797979" fill="none" />
  <path d="M 482 1086  C 480.32 1086  479 1084.68  479 1083  C 479 1081.32  480.32 1080  482 1080  C 483.68 1080  485 1081.32  485 1083  C 485 1084.68  483.68 1086  482 1086  " fill-rule="nonzero" fill="#797979" stroke="none" />
</svg>