<?xml version="1.0" encoding="utf-8"?>
<svg version="1.1" xmlns:xlink="http://www.w3.org/1999/xlink" width="12px" height="12px" viewBox="542 1077  12 12" xmlns="http://www.w3.org/2000/svg">
  <path d="M 548 1077  C 551.36 1077  554 1079.64  554 1083  C 554 1086.36  551.36 1089  548 1089  C 544.64 1089  542 1086.36  542 1083  C 542 1079.64  544.64 1077  548 1077  Z " fill-rule="nonzero" fill="#ffffff" stroke="none" />
  <path d="M 548 1077.5  C 551.08 1077.5  553.5 1079.92  553.5 1083  C 553.5 1086.08  551.08 1088.5  548 1088.5  C 544.92 1088.5  542.5 1086.08  542.5 1083  C 542.5 1079.92  544.92 1077.5  548 1077.5  Z " stroke-width="1" stroke="#797979" fill="none" />
  <path d="M 548 1086  C 546.32 1086  545 1084.68  545 1083  C 545 1081.32  546.32 1080  548 1080  C 549.68 1080  551 1081.32  551 1083  C 551 1084.68  549.68 1086  548 1086  " fill-rule="nonzero" fill="#797979" stroke="none" />
</svg>