<?xml version="1.0" encoding="utf-8"?>
<svg version="1.1" xmlns:xlink="http://www.w3.org/1999/xlink" width="12px" height="12px" viewBox="1299 1077  12 12" xmlns="http://www.w3.org/2000/svg">
  <path d="M 1305 1077  C 1308.36 1077  1311 1079.64  1311 1083  C 1311 1086.36  1308.36 1089  1305 1089  C 1301.64 1089  1299 1086.36  1299 1083  C 1299 1079.64  1301.64 1077  1305 1077  Z " fill-rule="nonzero" fill="#ffffff" stroke="none" />
  <path d="M 1305 1077.5  C 1308.08 1077.5  1310.5 1079.92  1310.5 1083  C 1310.5 1086.08  1308.08 1088.5  1305 1088.5  C 1301.92 1088.5  1299.5 1086.08  1299.5 1083  C 1299.5 1079.92  1301.92 1077.5  1305 1077.5  Z " stroke-width="1" stroke="#797979" fill="none" />
  <path d="M 1305 1086  C 1303.32 1086  1302 1084.68  1302 1083  C 1302 1081.32  1303.32 1080  1305 1080  C 1306.68 1080  1308 1081.32  1308 1083  C 1308 1084.68  1306.68 1086  1305 1086  " fill-rule="nonzero" fill="#797979" stroke="none" />
</svg>