<?xml version="1.0" encoding="utf-8"?>
<svg version="1.1" xmlns:xlink="http://www.w3.org/1999/xlink" width="15px" height="15px" xmlns="http://www.w3.org/2000/svg">
  <g transform="matrix(1 0 0 1 -36 -178 )">
    <path d="M 43.5 178  C 47.7 178  51 181.3  51 185.5  C 51 189.7  47.7 193  43.5 193  C 39.3 193  36 189.7  36 185.5  C 36 181.3  39.3 178  43.5 178  Z " fill-rule="nonzero" fill="#ffffff" stroke="none" />
    <path d="M 43.5 178.5  C 47.42 178.5  50.5 181.58  50.5 185.5  C 50.5 189.42  47.42 192.5  43.5 192.5  C 39.58 192.5  36.5 189.42  36.5 185.5  C 36.5 181.58  39.58 178.5  43.5 178.5  Z " stroke-width="1" stroke="#d7d7d7" fill="none" />
  </g>
</svg>