<?xml version="1.0" encoding="utf-8"?>
<svg version="1.1" xmlns:xlink="http://www.w3.org/1999/xlink" width="920px" height="26px" xmlns="http://www.w3.org/2000/svg">
  <defs>
    <mask fill="white" id="clip147">
      <path d="M 0 26  L 0 0  L 192.115534738485 0  L 421.935987509761 0  L 472.209211553464 0  L 920 0  L 920 26  L 0 26  Z " fill-rule="evenodd" />
    </mask>
  </defs>
  <g transform="matrix(1 0 0 1 -941 -516 )">
    <path d="M 0 26  L 0 0  L 192.115534738485 0  L 421.935987509761 0  L 472.209211553464 0  L 920 0  L 920 26  L 0 26  Z " fill-rule="nonzero" fill="#ffffff" stroke="none" transform="matrix(1 0 0 1 941 516 )" />
    <path d="M 0 26  L 0 0  L 192.115534738485 0  L 421.935987509761 0  L 472.209211553464 0  L 920 0  L 920 26  L 0 26  Z " stroke-width="2" stroke="#aaaaaa" fill="none" transform="matrix(1 0 0 1 941 516 )" mask="url(#clip147)" />
  </g>
</svg>