<?xml version="1.0" encoding="utf-8"?>
<svg version="1.1" xmlns:xlink="http://www.w3.org/1999/xlink" width="267px" height="29px" xmlns="http://www.w3.org/2000/svg">
  <defs>
    <mask fill="white" id="clip140">
      <path d="M 0 29  L 0 0  L 92.8254385964926 0  L 97.5096491228077 0  L 130.299122807017 0  L 267 0  L 267 29  L 0 29  Z " fill-rule="evenodd" />
    </mask>
  </defs>
  <g transform="matrix(1 0 0 1 -1135 -159 )">
    <path d="M 0 29  L 0 0  L 92.8254385964926 0  L 97.5096491228077 0  L 130.299122807017 0  L 267 0  L 267 29  L 0 29  Z " fill-rule="nonzero" fill="#ffffff" stroke="none" transform="matrix(1 0 0 1 1135 159 )" />
    <path d="M 0 29  L 0 0  L 92.8254385964926 0  L 97.5096491228077 0  L 130.299122807017 0  L 267 0  L 267 29  L 0 29  Z " stroke-width="2" stroke="#aaaaaa" fill="none" transform="matrix(1 0 0 1 1135 159 )" mask="url(#clip140)" />
  </g>
</svg>