<?xml version="1.0" encoding="utf-8"?>
<svg version="1.1" xmlns:xlink="http://www.w3.org/1999/xlink" width="19px" height="19px" xmlns="http://www.w3.org/2000/svg">
  <g transform="matrix(1 0 0 1 -1188 -59 )">
    <path d="M 1197.5 61  C 1201.7 61  1205 64.3  1205 68.5  C 1205 72.7  1201.7 76  1197.5 76  C 1193.3 76  1190 72.7  1190 68.5  C 1190 64.3  1193.3 61  1197.5 61  Z " fill-rule="nonzero" fill="#ffffff" stroke="none" fill-opacity="0" />
    <path d="M 1197.5 60.5  C 1201.98 60.5  1205.5 64.02  1205.5 68.5  C 1205.5 72.98  1201.98 76.5  1197.5 76.5  C 1193.02 76.5  1189.5 72.98  1189.5 68.5  C 1189.5 64.02  1193.02 60.5  1197.5 60.5  Z " stroke-width="3" stroke="#4ec8fa" fill="none" />
  </g>
</svg>