<?xml version="1.0" encoding="utf-8"?>
<svg version="1.1" xmlns:xlink="http://www.w3.org/1999/xlink" width="24px" height="24px" xmlns="http://www.w3.org/2000/svg">
  <g transform="matrix(1 0 0 1 -37 -80 )">
    <path d="M 49 80  C 55.72 80  61 85.28  61 92  C 61 98.72  55.72 104  49 104  C 42.28 104  37 98.72  37 92  C 37 85.28  42.28 80  49 80  Z " fill-rule="nonzero" fill="#ffffff" stroke="none" />
    <path d="M 49 80.5  C 55.44 80.5  60.5 85.56  60.5 92  C 60.5 98.44  55.44 103.5  49 103.5  C 42.56 103.5  37.5 98.44  37.5 92  C 37.5 85.56  42.56 80.5  49 80.5  Z " stroke-width="1" stroke="#1890ff" fill="none" />
  </g>
</svg>