<?xml version="1.0" encoding="utf-8"?>
<svg version="1.1" xmlns:xlink="http://www.w3.org/1999/xlink" width="24px" height="24px" xmlns="http://www.w3.org/2000/svg">
  <g transform="matrix(1 0 0 1 -913 -80 )">
    <path d="M 925 80  C 931.72 80  937 85.28  937 92  C 937 98.72  931.72 104  925 104  C 918.28 104  913 98.72  913 92  C 913 85.28  918.28 80  925 80  Z " fill-rule="nonzero" fill="#ffffff" stroke="none" />
    <path d="M 925 80.5  C 931.44 80.5  936.5 85.56  936.5 92  C 936.5 98.44  931.44 103.5  925 103.5  C 918.56 103.5  913.5 98.44  913.5 92  C 913.5 85.56  918.56 80.5  925 80.5  Z " stroke-width="1" stroke="#969696" fill="none" />
  </g>
</svg>