<?xml version="1.0" encoding="utf-8"?>
<svg version="1.1" xmlns:xlink="http://www.w3.org/1999/xlink" width="178px" height="26px" xmlns="http://www.w3.org/2000/svg">
  <defs>
    <mask fill="white" id="clip159">
      <path d="M 0 26  L 0 0  L 178 0  L 178 26  L 124.043750000001 26  L 95.6131944444456 26  L 0 26  Z " fill-rule="evenodd" />
    </mask>
  </defs>
  <g transform="matrix(1 0 0 1 -486 -928 )">
    <path d="M 0 26  L 0 0  L 178 0  L 178 26  L 124.043750000001 26  L 95.6131944444456 26  L 0 26  Z " fill-rule="nonzero" fill="#ffffff" stroke="none" transform="matrix(1 0 0 1 486 928 )" />
    <path d="M 0 26  L 0 0  L 178 0  L 178 26  L 124.043750000001 26  L 95.6131944444456 26  L 0 26  Z " stroke-width="2" stroke="#aaaaaa" fill="none" transform="matrix(1 0 0 1 486 928 )" mask="url(#clip159)" />
  </g>
</svg>