<?xml version="1.0" encoding="utf-8"?>
<svg version="1.1" xmlns:xlink="http://www.w3.org/1999/xlink" width="12px" height="12px" viewBox="1696 526  12 12" xmlns="http://www.w3.org/2000/svg">
  <path d="M 1702 526  C 1705.36 526  1708 528.64  1708 532  C 1708 535.36  1705.36 538  1702 538  C 1698.64 538  1696 535.36  1696 532  C 1696 528.64  1698.64 526  1702 526  Z " fill-rule="nonzero" fill="#ffffff" stroke="none" />
  <path d="M 1702 526.5  C 1705.08 526.5  1707.5 528.92  1707.5 532  C 1707.5 535.08  1705.08 537.5  1702 537.5  C 1698.92 537.5  1696.5 535.08  1696.5 532  C 1696.5 528.92  1698.92 526.5  1702 526.5  Z " stroke-width="1" stroke="#797979" fill="none" />
  <path d="M 1702 535  C 1700.32 535  1699 533.68  1699 532  C 1699 530.32  1700.32 529  1702 529  C 1703.68 529  1705 530.32  1705 532  C 1705 533.68  1703.68 535  1702 535  " fill-rule="nonzero" fill="#797979" stroke="none" />
</svg>