<?xml version="1.0" encoding="utf-8"?>
<svg version="1.1" xmlns:xlink="http://www.w3.org/1999/xlink" width="12px" height="12px" viewBox="1762 526  12 12" xmlns="http://www.w3.org/2000/svg">
  <path d="M 1768 526  C 1771.36 526  1774 528.64  1774 532  C 1774 535.36  1771.36 538  1768 538  C 1764.64 538  1762 535.36  1762 532  C 1762 528.64  1764.64 526  1768 526  Z " fill-rule="nonzero" fill="#ffffff" stroke="none" />
  <path d="M 1768 526.5  C 1771.08 526.5  1773.5 528.92  1773.5 532  C 1773.5 535.08  1771.08 537.5  1768 537.5  C 1764.92 537.5  1762.5 535.08  1762.5 532  C 1762.5 528.92  1764.92 526.5  1768 526.5  Z " stroke-width="1" stroke="#797979" fill="none" />
  <path d="M 1768 535  C 1766.32 535  1765 533.68  1765 532  C 1765 530.32  1766.32 529  1768 529  C 1769.68 529  1771 530.32  1771 532  C 1771 533.68  1769.68 535  1768 535  " fill-rule="nonzero" fill="#797979" stroke="none" />
</svg>