<svg t="1606360971384" class="icon" viewBox="0 0 1024 1024" version="1.1" xmlns="http://www.w3.org/2000/svg" p-id="4236" width="200" height="200"><path d="M887.467 853.333H409.6c-18.205 0-34.133 15.929-34.133 34.134S391.395 921.6 409.6 921.6h477.867c18.204 0 34.133-15.929 34.133-34.133s-15.929-34.134-34.133-34.134zM603.022 728.178c0 18.204 15.93 34.133 34.133 34.133h250.312c18.204 0 34.133-15.93 34.133-34.133s-15.929-34.133-34.133-34.133H637.155c-18.204 0-34.133 15.928-34.133 34.133z m145.636-446.01c6.827-9.101 9.102-20.48 6.827-31.857-2.276-11.378-6.827-20.48-15.93-27.306L587.093 111.502c-18.204-13.653-45.511-9.102-59.164 9.103l-11.378 15.928L737.28 298.098l11.378-15.93zM102.4 903.396c0 4.552 2.275 11.378 6.827 13.654 4.551 4.551 9.102 4.551 13.653 2.276l193.422-84.196-191.147-141.084c-6.826 63.715-20.48 200.248-22.755 209.35zM498.347 159.29L143.36 639.43l220.729 161.564L716.8 320.853 498.347 159.29z m-116.054 532.48c-9.102 11.378-25.031 13.653-36.408 6.826-4.552-4.55-9.103-9.102-9.103-15.928s0-13.654 4.551-18.205l238.934-332.23c9.102-11.379 25.031-13.654 36.408-6.827 11.378 9.102 13.654 25.03 6.827 36.408L382.293 691.77z" fill="#1296db" p-id="4237"></path></svg>