<svg t="1606361292141" class="icon" viewBox="0 0 1024 1024" version="1.1" xmlns="http://www.w3.org/2000/svg" p-id="5868" width="200" height="200"><path d="M870.398464 1023.997952H716.798771c-28.262343 0-51.199898-25.463416-51.199897-56.86602 0-31.402604 22.937554-56.934286 51.199897-56.934286h102.399795V113.800306h-614.398771v284.398364c0 31.402604-22.937554 56.934286-51.199897 56.934286S102.4 429.669541 102.4 398.19867v-341.33265C102.4 25.463416 125.337554 0 153.599898 0h716.798566c28.262343 0 51.199898 25.463416 51.199898 56.86602v910.265912c0 31.402604-22.937554 56.86602-51.199898 56.86602z m-511.998976 0c-20.821292 0.2048-39.662854-13.653306-47.650038-35.02073a61.439877 61.439877 0 0 1 11.263977-62.259075l117.281899-130.25254-117.213632-130.320806a61.57641 61.57641 0 0 1 2.662395-77.209446 47.513505 47.513505 0 0 1 69.495327-3.003727l153.599693 170.666325a61.439877 61.439877 0 0 1 0 80.213173l-153.599693 170.666326A48.674036 48.674036 0 0 1 358.399488 1023.997952zM511.999181 853.331627H153.599898c-28.262343 0-51.199898-25.463416-51.199898-56.86602 0-31.402604 22.937554-56.934286 51.199898-56.934286H511.999181c28.262343 0 51.199898 25.463416 51.199897 56.934286 0 31.402604-22.937554 56.86602-51.199897 56.86602z" fill="#ffffff" p-id="5869"></path></svg>