<svg t="1606361334210" class="icon" viewBox="0 0 1024 1024" version="1.1" xmlns="http://www.w3.org/2000/svg" p-id="6721" width="200" height="200"><path d="M808.672897 797.507788c-25.520249 0-47.850467 22.330218-47.850467 47.850467v38.280374c0 22.330218-19.140187 41.470405-41.470405 41.470405H164.286604c-22.330218 0-41.470405-19.140187-41.470405-41.470405V137.17134c0-22.330218 19.140187-41.470405 41.470405-41.470405h558.255452c22.330218 0 41.470405 19.140187 41.470405 41.470405v38.280373c0 25.520249 22.330218 47.850467 47.850467 47.850468s47.850467-22.330218 47.850468-47.850468V137.17134C859.713396 60.610592 799.102804 0 722.542056 0H164.286604C87.725857 0 27.115265 60.610592 27.115265 137.17134v749.65732c0 76.560748 60.610592 137.17134 137.171339 137.17134h558.255452c76.560748 0 137.17134-60.610592 137.17134-137.17134v-38.280373c-3.190031-28.71028-25.520249-51.040498-51.040499-51.040499z" p-id="6722" fill="#ffffff"></path><path d="M984.124611 475.314642l-210.542056-210.542056c-19.140187-19.140187-47.850467-19.140187-66.990655 0s-19.140187 47.850467 0 66.990654l127.601246 127.601246H320.598131c-25.520249 0-47.850467 22.330218-47.850467 47.850467s22.330218 47.850467 47.850467 47.850468h513.595015l-127.601246 127.601246c-19.140187 19.140187-19.140187 47.850467 0 66.990654s47.850467 19.140187 66.990655 0l210.542056-210.542056c15.950156-12.760125 15.950156-44.660436 0-63.800623z" p-id="6723" fill="#ffffff"></path></svg>