<svg t="1606368003526" class="icon" viewBox="0 0 1024 1024" version="1.1" xmlns="http://www.w3.org/2000/svg" p-id="13724" width="200" height="200"><path d="M1007.616 348.672l-184.832-207.36c-14.336-11.264-27.136-15.872-41.984-15.872-15.872 0-30.72 5.632-40.96 15.872l-188.416 206.336c-6.656 10.752-12.8 22.528-12.8 38.4 0 28.16 24.576 52.736 52.736 52.736 14.336 0 29.696-7.168 41.472-18.944l95.232-103.424v530.432c0 31.744 20.48 52.736 52.736 52.736 31.232 0 53.248-21.504 53.248-52.736V315.904L929.28 419.84c12.8 12.8 24.064 18.432 37.376 18.432 31.232 0 56.32-23.552 56.32-52.736 0.512-13.824-5.12-26.624-15.36-36.864zM354.304 178.176H56.32C25.6 178.176 1.024 203.264 1.024 233.472c0 30.72 25.088 55.296 55.296 55.296h297.984c30.72 0 55.296-25.088 55.296-55.296s-24.576-55.296-55.296-55.296z m0 278.528H56.32C25.6 456.704 0.512 481.28 0.512 512c0 30.72 25.088 55.296 55.296 55.296h297.984c30.72 0 55.296-25.088 55.296-55.296 1.024-30.72-24.064-55.296-54.784-55.296z m0 278.016H56.32c-30.72 0-55.296 25.088-55.296 55.296 0 30.72 25.088 55.296 55.296 55.296h297.984c30.72 0 55.296-25.088 55.296-55.296s-24.576-55.296-55.296-55.296z" fill="#1296db" p-id="13725"></path></svg>