<svg t="1606368096521" class="icon" viewBox="0 0 1024 1024" version="1.1" xmlns="http://www.w3.org/2000/svg" p-id="14524" width="200" height="200"><path d="M954.8 583.8c-12.7 0-23.6 5.5-36.3 18.2l-92.8 101.5v-518c0-30.2-21.4-51.3-51.9-51.3-31.1 0-51.1 20.1-51.1 51.3v518L630 602.3c-11.6-11.6-26.7-18.5-40.5-18.5-27.3 0-51.2 24-51.2 51.3 0 15.4 6 27.1 12.3 37.6L734 874.4c9.9 9.9 24 15.4 39.7 15.4 14.5 0 26.7-4.7 40.7-15.6l180.2-202.4c10-10.1 15.3-22.7 15.3-36.7 0-28.3-24.7-51.3-55.1-51.3zM358.6 729.5H68.1c-29.8 0-54 24.3-54 54.2 0 29.9 24.2 54.2 54 54.2h290.5c29.9 0 54-24.3 54-54.2 0-29.9-24.1-54.2-54-54.2z m0-271.6H68.1c-29.8 0-54 24.2-54 54.2 0 29.9 24.2 54.2 54 54.2h290.5c29.9 0 54-24.3 54-54.2 0-30-24.1-54.2-54-54.2z m0-271.7H68.1c-29.8 0-54 24.3-54 54.2 0 29.9 24.2 54.2 54 54.2h290.5c29.9 0 54-24.3 54-54.2 0-30-24.1-54.2-54-54.2z" fill="#1296db" p-id="14525"></path></svg>