<?xml version="1.0" encoding="utf-8"?>
<svg version="1.1" xmlns:xlink="http://www.w3.org/1999/xlink" width="10px" height="10px" xmlns="http://www.w3.org/2000/svg">
  <g transform="matrix(1 0 0 1 -1381 -166 )">
    <path d="M 1386 166  C 1388.8 166  1391 168.2  1391 171  C 1391 173.8  1388.8 176  1386 176  C 1383.2 176  1381 173.8  1381 171  C 1381 168.2  1383.2 166  1386 166  Z " fill-rule="nonzero" fill="#ffffff" stroke="none" />
    <path d="M 1386 166.5  C 1388.52 166.5  1390.5 168.48  1390.5 171  C 1390.5 173.52  1388.52 175.5  1386 175.5  C 1383.48 175.5  1381.5 173.52  1381.5 171  C 1381.5 168.48  1383.48 166.5  1386 166.5  Z " stroke-width="1" stroke="#aaaaaa" fill="none" />
  </g>
</svg>