<?xml version="1.0" encoding="utf-8"?>
<svg version="1.1" xmlns:xlink="http://www.w3.org/1999/xlink" width="186px" height="33px" xmlns="http://www.w3.org/2000/svg">
  <g transform="matrix(1 0 0 1 -37 -228 )">
    <path d="M 37.5 232  A 3.5 3.5 0 0 1 41 228.5 L 219 228.5  A 3.5 3.5 0 0 1 222.5 232 L 222.5 257  A 3.5 3.5 0 0 1 219 260.5 L 41 260.5  A 3.5 3.5 0 0 1 37.5 257 L 37.5 232  Z " fill-rule="nonzero" fill="#f2f2f2" stroke="none" fill-opacity="0" />
    <path d="M 37.5 232  A 3.5 3.5 0 0 1 41 228.5 L 219 228.5  A 3.5 3.5 0 0 1 222.5 232 L 222.5 257  A 3.5 3.5 0 0 1 219 260.5 L 41 260.5  A 3.5 3.5 0 0 1 37.5 257 L 37.5 232  Z " stroke-width="1" stroke="#aaaaaa" fill="none" />
  </g>
</svg>