<?xml version="1.0" encoding="utf-8"?>
<svg version="1.1" xmlns:xlink="http://www.w3.org/1999/xlink" width="213px" height="28px" xmlns="http://www.w3.org/2000/svg">
  <defs>
    <mask fill="white" id="clip1">
      <path d="M 0 28  L 0 0  L 145.846153846155 0  L 173.666666666667 0  L 175.076923076922 0  L 213 0  L 213 28  L 142.769230769231 28  L 113.538461538461 28  L 0 28  Z " fill-rule="evenodd" />
    </mask>
  </defs>
  <g transform="matrix(1 0 0 1 0 -96 )">
    <path d="M 0 28  L 0 0  L 145.846153846155 0  L 173.666666666667 0  L 175.076923076922 0  L 213 0  L 213 28  L 142.769230769231 28  L 113.538461538461 28  L 0 28  Z " fill-rule="nonzero" fill="#ffffff" stroke="none" transform="matrix(1 0 0 1 0 96 )" />
    <path d="M 0 28  L 0 0  L 145.846153846155 0  L 173.666666666667 0  L 175.076923076922 0  L 213 0  L 213 28  L 142.769230769231 28  L 113.538461538461 28  L 0 28  Z " stroke-width="2" stroke="#979797" fill="none" transform="matrix(1 0 0 1 0 96 )" mask="url(#clip1)" />
  </g>
</svg>