<?xml version="1.0" encoding="utf-8"?>
<svg version="1.1" xmlns:xlink="http://www.w3.org/1999/xlink" width="213px" height="28px" xmlns="http://www.w3.org/2000/svg">
  <defs>
    <mask fill="white" id="clip5">
      <path d="M 0 28  L 0 0  L 118.016949152542 0  L 213 0  L 213 28  L 150.5593220339 28  L 93.6101694915261 28  L 0 28  Z " fill-rule="evenodd" />
    </mask>
  </defs>
  <g transform="matrix(1 0 0 1 0 -149 )">
    <path d="M 0 28  L 0 0  L 118.016949152542 0  L 213 0  L 213 28  L 150.5593220339 28  L 93.6101694915261 28  L 0 28  Z " fill-rule="nonzero" fill="#ffffff" stroke="none" transform="matrix(1 0 0 1 0 149 )" />
    <path d="M 0 28  L 0 0  L 118.016949152542 0  L 213 0  L 213 28  L 150.5593220339 28  L 93.6101694915261 28  L 0 28  Z " stroke-width="2" stroke="#979797" fill="none" transform="matrix(1 0 0 1 0 149 )" mask="url(#clip5)" />
  </g>
</svg>