<?xml version="1.0" encoding="utf-8"?>
<svg version="1.1" xmlns:xlink="http://www.w3.org/1999/xlink" width="177px" height="114px" xmlns="http://www.w3.org/2000/svg">
  <g transform="matrix(1 0 0 1 -57 -517 )">
    <path d="M 57.5 630.5  C 57.5 630.5  57.5 538.671428571429  57.5 538.671428571429  C 57.5 538.671428571429  181.320123565842 538.671428571429  181.320123565842 538.671428571429  C 181.320123565842 538.671428571429  211.452890005868 518.713213980895  211.452890005868 518.713213980895  C 211.452890005868 518.713213980895  206.172229633759 538.671428571429  206.172229633759 538.671428571429  C 206.172229633759 538.671428571429  233.5 538.671428571429  233.5 538.671428571429  C 233.5 538.671428571429  233.5 630.5  233.5 630.5  C 233.5 630.5  57.5 630.5  57.5 630.5  Z " fill-rule="nonzero" fill="#ffffff" stroke="none" />
    <path d="M 57 631  C 57 631  57 538.171428571429  57 538.171428571429  C 57 538.171428571429  181.169554013028 538.171428571429  181.169554013028 538.171428571429  C 181.169554013028 538.171428571429  212.272389446301 517.570695970696  212.272389446301 517.570695970696  C 212.272389446301 517.570695970696  206.821727926071 538.171428571429  206.821727926071 538.171428571429  C 206.821727926071 538.171428571429  234 538.171428571429  234 538.171428571429  C 234 538.171428571429  234 631  234 631  C 234 631  57 631  57 631  Z M 58 630  C 58 630  233 630  233 630  C 233 630  233 539.171428571429  233 539.171428571429  C 233 539.171428571429  205.522731341446 539.171428571429  205.522731341446 539.171428571429  C 205.522731341446 539.171428571429  210.633390565435 519.855731991094  210.633390565435 519.855731991094  C 210.633390565435 519.855731991094  181.470693118655 539.171428571429  181.470693118655 539.171428571429  C 181.470693118655 539.171428571429  58 539.171428571429  58 539.171428571429  C 58 539.171428571429  58 630  58 630  Z " fill-rule="nonzero" fill="#797979" stroke="none" />
  </g>
</svg>