<?xml version="1.0" encoding="utf-8"?>
<svg version="1.1" xmlns:xlink="http://www.w3.org/1999/xlink" width="12px" height="12px" viewBox="891 1889  12 12" xmlns="http://www.w3.org/2000/svg">
  <path d="M 897 1889  C 900.36 1889  903 1891.64  903 1895  C 903 1898.36  900.36 1901  897 1901  C 893.64 1901  891 1898.36  891 1895  C 891 1891.64  893.64 1889  897 1889  Z " fill-rule="nonzero" fill="#ffffff" stroke="none" />
  <path d="M 897 1889.5  C 900.08 1889.5  902.5 1891.92  902.5 1895  C 902.5 1898.08  900.08 1900.5  897 1900.5  C 893.92 1900.5  891.5 1898.08  891.5 1895  C 891.5 1891.92  893.92 1889.5  897 1889.5  Z " stroke-width="1" stroke="#7f7f7f" fill="none" />
  <path d="M 897 1898  C 895.32 1898  894 1896.68  894 1895  C 894 1893.32  895.32 1892  897 1892  C 898.68 1892  900 1893.32  900 1895  C 900 1896.68  898.68 1898  897 1898  " fill-rule="nonzero" fill="#7f7f7f" stroke="none" />
</svg>