<?xml version="1.0" encoding="utf-8"?>
<svg version="1.1" xmlns:xlink="http://www.w3.org/1999/xlink" width="12px" height="12px" viewBox="958 1889  12 12" xmlns="http://www.w3.org/2000/svg">
  <path d="M 964 1889  C 967.36 1889  970 1891.64  970 1895  C 970 1898.36  967.36 1901  964 1901  C 960.64 1901  958 1898.36  958 1895  C 958 1891.64  960.64 1889  964 1889  Z " fill-rule="nonzero" fill="#ffffff" stroke="none" />
  <path d="M 964 1889.5  C 967.08 1889.5  969.5 1891.92  969.5 1895  C 969.5 1898.08  967.08 1900.5  964 1900.5  C 960.92 1900.5  958.5 1898.08  958.5 1895  C 958.5 1891.92  960.92 1889.5  964 1889.5  Z " stroke-width="1" stroke="#7f7f7f" fill="none" />
  <path d="M 964 1898  C 962.32 1898  961 1896.68  961 1895  C 961 1893.32  962.32 1892  964 1892  C 965.68 1892  967 1893.32  967 1895  C 967 1896.68  965.68 1898  964 1898  " fill-rule="nonzero" fill="#7f7f7f" stroke="none" />
</svg>