<?xml version="1.0" encoding="utf-8"?>
<svg version="1.1" xmlns:xlink="http://www.w3.org/1999/xlink" width="12px" height="12px" viewBox="891 1932  12 12" xmlns="http://www.w3.org/2000/svg">
  <path d="M 897 1932  C 900.36 1932  903 1934.64  903 1938  C 903 1941.36  900.36 1944  897 1944  C 893.64 1944  891 1941.36  891 1938  C 891 1934.64  893.64 1932  897 1932  Z " fill-rule="nonzero" fill="#ffffff" stroke="none" />
  <path d="M 897 1932.5  C 900.08 1932.5  902.5 1934.92  902.5 1938  C 902.5 1941.08  900.08 1943.5  897 1943.5  C 893.92 1943.5  891.5 1941.08  891.5 1938  C 891.5 1934.92  893.92 1932.5  897 1932.5  Z " stroke-width="1" stroke="#7f7f7f" fill="none" />
  <path d="M 897 1941  C 895.32 1941  894 1939.68  894 1938  C 894 1936.32  895.32 1935  897 1935  C 898.68 1935  900 1936.32  900 1938  C 900 1939.68  898.68 1941  897 1941  " fill-rule="nonzero" fill="#7f7f7f" stroke="none" />
</svg>