<?xml version="1.0" encoding="utf-8"?>
<svg version="1.1" xmlns:xlink="http://www.w3.org/1999/xlink" width="12px" height="12px" viewBox="990 1057  12 12" xmlns="http://www.w3.org/2000/svg">
  <path d="M 996 1057  C 999.36 1057  1002 1059.64  1002 1063  C 1002 1066.36  999.36 1069  996 1069  C 992.64 1069  990 1066.36  990 1063  C 990 1059.64  992.64 1057  996 1057  Z " fill-rule="nonzero" fill="#ffffff" stroke="none" />
  <path d="M 996 1057.5  C 999.08 1057.5  1001.5 1059.92  1001.5 1063  C 1001.5 1066.08  999.08 1068.5  996 1068.5  C 992.92 1068.5  990.5 1066.08  990.5 1063  C 990.5 1059.92  992.92 1057.5  996 1057.5  Z " stroke-width="1" stroke="#7f7f7f" fill="none" />
  <path d="M 996 1066  C 994.32 1066  993 1064.68  993 1063  C 993 1061.32  994.32 1060  996 1060  C 997.68 1060  999 1061.32  999 1063  C 999 1064.68  997.68 1066  996 1066  " fill-rule="nonzero" fill="#7f7f7f" stroke="none" />
</svg>